<svg width="67" height="54" viewBox="0 0 67 54" fill="none" xmlns="http://www.w3.org/2000/svg">
<rect x="1.86401" y="1.06116" width="64.02" height="51" stroke="white" stroke-width="2"/>
<g clip-path="url(#clip0_101_41)">
<path d="M39.154 33.8492C39.154 34.1718 39.264 34.4432 39.484 34.6632C39.704 34.8832 39.9753 34.9932 40.298 34.9932C40.6207 34.9932 40.892 34.8832 41.112 34.6632C41.332 34.4432 41.442 34.1718 41.442 33.8492C41.442 33.5265 41.3283 33.2552 41.101 33.0352C40.8737 32.8152 40.606 32.7052 40.298 32.7052C39.99 32.7052 39.7223 32.8152 39.495 33.0352C39.2677 33.2552 39.154 33.5265 39.154 33.8492ZM27.648 18.4932H43.95C44.1553 18.4932 44.3277 18.5702 44.467 18.7241C44.6063 18.8782 44.6613 19.0578 44.632 19.2632L43.928 25.0052C43.8547 25.6358 43.576 26.1602 43.092 26.5782C42.608 26.9962 42.0507 27.2052 41.42 27.2052H29.408L29.54 27.8432C29.628 28.3272 29.8627 28.7232 30.244 29.0312C30.6253 29.3392 31.0653 29.4932 31.564 29.4932H42.124C42.3147 29.4932 42.476 29.5592 42.608 29.6912C42.74 29.8232 42.806 29.9845 42.806 30.1752C42.806 30.3658 42.74 30.5308 42.608 30.6702C42.476 30.8095 42.3147 30.8792 42.124 30.8792H31.542C30.9993 30.8792 30.4897 30.7582 30.013 30.5162C29.5363 30.2742 29.1367 29.9442 28.814 29.5262C28.4913 29.1082 28.2787 28.6352 28.176 28.1072L25.976 17.1292H23.798C23.6073 17.1292 23.4423 17.0595 23.303 16.9202C23.1637 16.7808 23.094 16.6158 23.094 16.4251C23.094 16.2345 23.1637 16.0732 23.303 15.9412C23.4423 15.8092 23.6073 15.7432 23.798 15.7432H26.548C26.7093 15.7432 26.856 15.7945 26.988 15.8972C27.12 15.9998 27.2007 16.1318 27.23 16.2931L27.648 18.4932ZM27.934 19.8792L29.122 25.8412H41.42C41.6987 25.8412 41.948 25.7458 42.168 25.5552C42.388 25.3645 42.52 25.1225 42.564 24.8292L43.18 19.8792H27.934ZM37.768 33.8492C37.768 33.3945 37.8817 32.9765 38.109 32.5952C38.3363 32.2138 38.6443 31.9095 39.033 31.6822C39.4217 31.4548 39.8433 31.3412 40.298 31.3412C40.7527 31.3412 41.1743 31.4548 41.563 31.6822C41.9517 31.9095 42.256 32.2138 42.476 32.5952C42.696 32.9765 42.806 33.3945 42.806 33.8492C42.806 34.3038 42.6923 34.7255 42.465 35.1142C42.2377 35.5028 41.9333 35.8108 41.552 36.0382C41.1707 36.2655 40.7527 36.3792 40.298 36.3792C39.8433 36.3792 39.4217 36.2655 39.033 36.0382C38.6443 35.8108 38.3363 35.5028 38.109 35.1142C37.8817 34.7255 37.768 34.3038 37.768 33.8492ZM28.594 33.8492C28.594 33.3945 28.7077 32.9765 28.935 32.5952C29.1623 32.2138 29.4703 31.9095 29.859 31.6822C30.2477 31.4548 30.6693 31.3412 31.124 31.3412C31.5787 31.3412 32.0003 31.4548 32.389 31.6822C32.7777 31.9095 33.0857 32.2138 33.313 32.5952C33.5403 32.9765 33.654 33.3945 33.654 33.8492C33.654 34.3038 33.5403 34.7255 33.313 35.1142C33.0857 35.5028 32.7777 35.8108 32.389 36.0382C32.0003 36.2655 31.5787 36.3792 31.124 36.3792C30.6693 36.3792 30.2477 36.2655 29.859 36.0382C29.4703 35.8108 29.1623 35.5028 28.935 35.1142C28.7077 34.7255 28.594 34.3038 28.594 33.8492ZM29.98 33.8492C29.98 34.1718 30.09 34.4432 30.31 34.6632C30.53 34.8832 30.8013 34.9932 31.124 34.9932C31.4467 34.9932 31.718 34.8832 31.938 34.6632C32.158 34.4432 32.268 34.1718 32.268 33.8492C32.268 33.5265 32.158 33.2552 31.938 33.0352C31.718 32.8152 31.4467 32.7052 31.124 32.7052C30.8013 32.7052 30.53 32.8152 30.31 33.0352C30.09 33.2552 29.98 33.5265 29.98 33.8492Z" fill="white"/>
</g>
<defs>
<clipPath id="clip0_101_41">
<rect width="22.02" height="22" fill="white" transform="matrix(1 0 0 -1 22.864 37.0612)"/>
</clipPath>
</defs>
</svg>
