<svg width="14" height="14" viewBox="0 0 14 14" fill="none" xmlns="http://www.w3.org/2000/svg">
<path d="M11.9578 0.243652C12.7195 0.243652 13.364 0.888184 13.364 1.6499V11.9624C13.364 12.7534 12.7195 13.3687 11.9578 13.3687H1.64526C0.854248 13.3687 0.239014 12.7534 0.239014 11.9624V1.6499C0.239014 0.888184 0.854248 0.243652 1.64526 0.243652H11.9578ZM11.4597 9.26709C11.4597 9.23779 11.4597 9.2085 11.489 9.1499C11.4597 8.97412 11.3718 8.82764 11.196 8.76904L9.14526 7.89014C9.11597 7.86084 9.05737 7.86084 8.99878 7.83154C8.85229 7.86084 8.73511 7.91943 8.64722 8.00732L7.73901 9.12061C6.30347 8.44678 5.16089 7.3042 4.48706 5.86865L5.60034 4.96045C5.68823 4.87256 5.74683 4.75537 5.77612 4.60889C5.74683 4.55029 5.74683 4.4917 5.71753 4.4624L4.83862 2.41162C4.78003 2.23584 4.63354 2.14795 4.45776 2.11865C4.39917 2.14795 4.36987 2.14795 4.34058 2.14795L2.43628 2.5874C2.2605 2.646 2.11401 2.79248 2.11401 2.99756C2.11401 7.71436 5.92261 11.4937 10.6101 11.4937C10.8152 11.4937 10.991 11.3765 11.0203 11.1714L11.4597 9.26709Z" fill="#2DD6D4"/>
</svg>
