<svg width="18" height="14" viewBox="0 0 18 14" fill="none" xmlns="http://www.w3.org/2000/svg">
<path d="M8.69214 3.67139C8.75073 3.61279 8.83862 3.5835 8.92651 3.5835C8.98511 3.5835 9.073 3.61279 9.13159 3.67139L14.5515 8.09521V12.8999C14.5515 13.1636 14.3171 13.3687 14.0828 13.3687H10.7722C10.5378 13.3687 10.3035 13.1636 10.3035 12.8999V10.0874C10.3035 9.85303 10.0984 9.61865 9.83472 9.61865H7.95972C7.72534 9.61865 7.49097 9.85303 7.49097 10.0874V12.8999C7.49097 13.1636 7.28589 13.3687 7.05151 13.3687H3.77026C3.50659 13.3687 3.30151 13.1636 3.30151 12.8999V8.12451L8.69214 3.67139ZM17.2175 6.68896C17.3054 6.74756 17.364 6.86475 17.364 6.95264C17.364 7.04053 17.3347 7.12842 17.2761 7.18701L16.5144 8.09521C16.4558 8.18311 16.3679 8.2124 16.2507 8.2124C16.1628 8.2124 16.075 8.18311 16.0164 8.12451L9.13159 2.47021C9.073 2.41162 8.98511 2.38232 8.92651 2.38232C8.83862 2.38232 8.75073 2.41162 8.69214 2.47021L1.80737 8.12451C1.74878 8.18311 1.66089 8.2124 1.573 8.2124C1.45581 8.2124 1.36792 8.18311 1.30933 8.09521L0.547607 7.18701C0.518311 7.12842 0.459717 7.04053 0.459717 6.95264C0.459717 6.86475 0.518311 6.74756 0.606201 6.68896L8.01831 0.565918C8.25269 0.390137 8.57495 0.272949 8.92651 0.272949C9.24878 0.272949 9.57104 0.390137 9.80542 0.565918L12.4421 2.73389V0.624512C12.4421 0.419434 12.5886 0.272949 12.7937 0.272949H14.4343C14.6101 0.272949 14.7859 0.419434 14.7859 0.624512V4.66748L17.2175 6.68896Z" fill="#2DD6D4"/>
</svg>
