<svg width="16" height="12" viewBox="0 0 16 12" fill="none" xmlns="http://www.w3.org/2000/svg">
<path d="M15.446 3.90186C15.5632 3.81396 15.739 3.90186 15.739 4.04834V10.0249C15.739 10.8159 15.0945 11.4312 14.3328 11.4312H2.14526C1.35425 11.4312 0.739014 10.8159 0.739014 10.0249V4.04834C0.739014 3.90186 0.885498 3.81396 1.00269 3.90186C1.67651 4.4292 2.52612 5.07373 5.5144 7.2417C6.12964 7.68115 7.18433 8.64795 8.23901 8.64795C9.2644 8.64795 10.3484 7.68115 10.9343 7.2417C13.9226 5.07373 14.7722 4.4292 15.446 3.90186ZM8.23901 7.68115C7.53589 7.71045 6.56909 6.83154 6.07104 6.47998C2.17456 3.66748 1.88159 3.40381 1.00269 2.70068C0.826904 2.5835 0.739014 2.37842 0.739014 2.14404V1.5874C0.739014 0.825684 1.35425 0.181152 2.14526 0.181152H14.3328C15.0945 0.181152 15.739 0.825684 15.739 1.5874V2.14404C15.739 2.37842 15.6218 2.5835 15.446 2.70068C14.5671 3.40381 14.2742 3.66748 10.3777 6.47998C9.87964 6.83154 8.91284 7.71045 8.23901 7.68115Z" fill="#2DD6D4"/>
</svg>
